<svg xmlns="http://www.w3.org/2000/svg" focusable="false" height="20" viewBox="0 -960 960 960" width="20" class=" aoH"><path d="M648-624v-120H312v120h-72v-192h480v192h-72Zm-480 72h625-625Zm539.789 96Q723-456 733.5-466.289q10.5-10.29 10.5-25.5Q744-507 733.711-517.5q-10.29-10.5-25.5-10.5Q693-528 682.5-517.711q-10.5 10.29-10.5 25.5Q672-477 682.289-466.5q10.29 10.5 25.5 10.5ZM648-216v-144H312v144h336Zm72 72H240v-144H96v-240q0-40 28-68t68-28h576q40 0 68 28t28 68v240H720v144Zm73-216v-153.672Q793-530 781-541t-28-11H206q-16.15 0-27.075 11.04T168-513.6V-360h72v-72h480v72h73Z"/></svg>